{"title":"Airplane 2 The Sequel (1982) 720p BRrip x264 Junaid-Zia (PimpRG)","uid":9045540,"size":687392483,"categoryP":"video","categoryS":"hd___movies","magnet":"?xt=urn:btih:1b5cda6d4e55ac3274a36461f591e7e26c84b204&amp;dn=Airplane+2+The+Sequel+%281982%29+720p+BRrip+x264+Junaid-Zia+%28PimpRG%29&amp;tr=udp%3A%2F%2Ftracker.openbittorrent.com%3A80&amp;tr=udp%3A%2F%2Fopen.demonii.com%3A1337&amp;tr=udp%3A%2F%2Ftracker.coppersurfer.tk%3A6969&amp;tr=udp%3A%2F%2Fexodus.desync.com%3A6969","seeders":16,"leechers":10,"uploader":"junaidzia","files":-1,"time":1381741478,"description":" &lt;a href=&quot;http://www.piczhub.com/photos/20130917137937926107143.png&quot; rel=&quot;nofollow&quot; target=&quot;_NEW&quot;&gt;http://www.piczhub.com/photos/20130917137937926107143.png&lt;/a&gt;\n\n*******************************************************************************\n\nAirplane II The Sequel (1982) 720p BRrip x264 Junaid-Zia (PimpRG)\n\n*******************************************************************************\n\nIMDB :\n\n          **** &lt;a href=&quot; http://www.imdb.com/title/tt0083530/&quot; rel=&quot;nofollow&quot; target=&quot;_NEW&quot;&gt; http://www.imdb.com/title/tt0083530/&lt;/a&gt;  *****\n\nDetails :\n\nGeneral\nFormat                         : Matroska\nFile size                      : 651 MiB\nDuration                       : 1h 24mn\nOverall bit rate               : 1 080 Kbps\nEncoded date                   : UTC 2013-10-10 07:33:15\n\nVideo\nID                             : 1\nFormat                         : AVC\nFormat/Info                    : Advanced Video Codec\nFormat profile                 : &lt;a class=&quot;__cf_email__&quot; href=&quot;/cdn-cgi/l/email-protection&quot; data-cfemail=&quot;7d35141a153d3149534c&quot;&gt;[email&amp;#160;protected]&lt;/a&gt;&lt;script cf-hash='f9e31' type=&quot;text/javascript&quot;&gt;\n/* &lt;![CDATA[ */!function(){try{var t=&quot;currentScript&quot;in document?document.currentScript:function(){for(var t=document.getElementsByTagName(&quot;script&quot;),e=t.length;e--;)if(t[e].getAttribute(&quot;cf-hash&quot;))return t[e]}();if(t&amp;&amp;t.previousSibling){var e,r,n,i,c=t.previousSibling,a=c.getAttribute(&quot;data-cfemail&quot;);if(a){for(e=&quot;&quot;,r=parseInt(a.substr(0,2),16),n=2;a.length-n;n+=2)i=parseInt(a.substr(n,2),16)^r,e+=String.fromCharCode(i);e=document.createTextNode(e),c.parentNode.replaceChild(e,c)}}}catch(u){}}();/* ]]&gt; */&lt;/script&gt;\nFormat settings, CABAC         : Yes\nFormat settings, ReFrames      : 5 frames\nCodec ID                       : V_MPEG4/ISO/AVC\nDuration                       : 1h 24mn\nBit rate                       : 950 Kbps\nWidth                          : 1 280 pixels\nHeight                         : 720 pixels\nDisplay aspect ratio           : 16:9\nFrame rate mode                : Constant\nFrame rate                     : 23.976 fps\nColor space                    : YUV\nChroma subsampling             : 4:2:0\nBit depth                      : 8 bits\nScan type                      : Progressive\nSource                         : psychd\nStream size                    : 561 MiB (86%)\nTitle                          : *** Encoded by Junaid-Zia ***\nLanguage                       : English\n\nAudio\nID                             : 2\nFormat                         : AC-3\nFormat/Info                    : Audio Coding 3\nMode extension                 : CM (complete main)\nFormat settings, Endianness    : Big\nCodec ID                       : A_AC3\nDuration                       : 1h 24mn\nBit rate mode                  : Constant\nBit rate                       : 128 Kbps\nChannel(s)                     : 2 channels\nChannel positions              : Front: L R\nSampling rate                  : 48.0 KHz\nBit depth                      : 16 bits\nCompression mode               : Lossy\nStream size                    : 77.1 MiB (12%)\nTitle                          : *** Encoded by Junaid-Zia ***\nLanguage                       : English\n\nText\nID                             : 3\nFormat                         : UTF-8\nCodec ID                       : S_TEXT/UTF8\nCodec ID/Info                  : UTF-8 Plain Text\nTitle                          : *** Encoded by Junaid-Zia ***\nLanguage                       : English\n\n\nScreens :\n\n &lt;a href=&quot;\nhttp://imageshack.us/scaled/large/209/hnu0.jpg&quot; rel=&quot;nofollow&quot; target=&quot;_NEW&quot;&gt;\nhttp://imageshack.us/scaled/large/209/hnu0.jpg&lt;/a&gt; &lt;a href=&quot;\nhttp://imageshack.us/scaled/large/600/bkpa.jpg&quot; rel=&quot;nofollow&quot; target=&quot;_NEW&quot;&gt;\nhttp://imageshack.us/scaled/large/600/bkpa.jpg&lt;/a&gt; &lt;a href=&quot;\nhttp://imageshack.us/scaled/large/405/uc90.jpg&quot; rel=&quot;nofollow&quot; target=&quot;_NEW&quot;&gt;\nhttp://imageshack.us/scaled/large/405/uc90.jpg&lt;/a&gt; &lt;a href=&quot;\nhttp://imageshack.us/scaled/large/405/y8w5.jpg&quot; rel=&quot;nofollow&quot; target=&quot;_NEW&quot;&gt;\nhttp://imageshack.us/scaled/large/405/y8w5.jpg&lt;/a&gt; &lt;a href=&quot;\nhttp://imageshack.us/scaled/large/854/ezle.jpg&quot; rel=&quot;nofollow&quot; target=&quot;_NEW&quot;&gt;\nhttp://imageshack.us/scaled/large/854/ezle.jpg&lt;/a&gt; &lt;a href=&quot;\nhttp://imageshack.us/scaled/large/89/hxr4.jpg&quot; rel=&quot;nofollow&quot; target=&quot;_NEW&quot;&gt;\nhttp://imageshack.us/scaled/large/89/hxr4.jpg&lt;/a&gt; &lt;a href=&quot;\nhttp://imageshack.us/scaled/large/546/y0jw.jpg&quot; rel=&quot;nofollow&quot; target=&quot;_NEW&quot;&gt;\nhttp://imageshack.us/scaled/large/546/y0jw.jpg&lt;/a&gt;\n\n\nOfficial Website: &lt;a href=&quot;\nhttp://pimp4003.se/&quot; rel=&quot;nofollow&quot; target=&quot;_NEW&quot;&gt;\nhttp://pimp4003.se/&lt;/a&gt;\n\nSeed After Downloading, Remember Sharing is Caring.","torrent":{"xt":"urn:btih:1b5cda6d4e55ac3274a36461f591e7e26c84b204","amp;dn":"Airplane+2+The+Sequel+%281982%29+720p+BRrip+x264+Junaid-Zia+%28PimpRG%29","amp;tr":["udp%3A%2F%2Ftracker.openbittorrent.com%3A80","udp%3A%2F%2Fopen.demonii.com%3A1337","udp%3A%2F%2Ftracker.coppersurfer.tk%3A6969","udp%3A%2F%2Fexodus.desync.com%3A6969"],"infoHash":"1b5cda6d4e55ac3274a36461f591e7e26c84b204","infoHashBuffer":{"type":"Buffer","data":[27,92,218,109,78,85,172,50,116,163,100,97,245,145,231,226,108,132,178,4]},"announce":[],"urlList":[]}}